<svg version="1.1" id="Layer_1" xmlns="http://www.w3.org/2000/svg" xmlns:xlink="http://www.w3.org/1999/xlink" x="0px" y="0px"
	 width="100%" viewBox="0 0 216 182" enable-background="new 0 0 216 182" xml:space="preserve">
<path fill="#000000" opacity="1.000000" stroke="none" 
	d="
M108.000000,183.000000 
	C72.022308,183.000000 36.544621,183.000000 1.033466,183.000000 
	C1.033466,122.393784 1.033466,61.787552 1.033466,1.090657 
	C72.894211,1.090657 144.788574,1.090657 216.841461,1.090657 
	C216.841461,61.666348 216.841461,122.333130 216.841461,183.000000 
	C180.787842,183.000000 144.643921,183.000000 108.000000,183.000000 
M90.959694,103.922340 
	C93.213921,104.027054 95.468147,104.131767 97.849731,105.103020 
	C98.254112,106.784782 98.658501,108.466545 98.852097,110.847618 
	C96.287582,114.166023 92.876541,115.290810 88.763336,115.065437 
	C85.117661,114.865685 81.419876,114.703987 77.809952,115.106773 
	C75.645393,115.348297 73.605293,116.705284 70.752037,117.870033 
	C72.877083,119.636040 73.971642,120.545662 75.070580,121.458931 
	C73.956215,122.667282 72.909805,123.801933 71.370117,125.471474 
	C73.703362,126.210403 75.330482,126.725708 77.162392,127.305862 
	C76.412888,128.893188 75.694099,130.415466 74.834747,132.235428 
	C76.856651,132.622070 78.411125,132.919327 79.939484,133.211594 
	C79.939484,134.645523 79.939484,135.875107 79.939484,137.059265 
	C81.645035,137.280273 83.063263,137.464035 84.547623,137.656372 
	C84.547623,139.493851 84.547623,141.016754 84.547623,144.059036 
	C87.510986,141.160599 89.662071,139.252563 91.583817,137.136276 
	C95.604103,132.709015 99.082245,127.675430 103.594467,123.847260 
	C106.828308,121.103676 111.282280,118.592728 115.362495,118.291893 
	C125.229988,117.564339 131.039566,112.519371 135.317337,104.173897 
	C137.218048,100.465797 140.066635,96.933296 143.282028,94.291023 
	C146.971741,91.259003 151.545181,89.302414 155.674088,86.913727 
	C147.045105,84.153488 138.042221,79.031425 129.615479,89.179764 
	C128.839859,87.011559 128.516174,85.751587 127.959068,84.605034 
	C123.055511,74.513260 119.051071,63.814087 112.879105,54.563267 
	C107.967461,47.201477 100.393280,41.616085 93.348351,35.045033 
	C93.131348,35.349289 92.914345,35.653545 92.719719,36.698254 
	C94.387100,38.822521 96.054482,40.946785 97.092842,43.724159 
	C96.797043,43.786304 96.501236,43.848446 95.631775,43.356754 
	C94.596039,43.356754 93.560310,43.356754 92.009811,43.356754 
	C93.053268,45.683704 93.891205,47.552330 94.206299,49.849834 
	C94.040123,50.002129 93.873940,50.154427 93.006226,50.324646 
	C89.466339,51.416706 89.466339,51.416706 94.881180,57.161758 
	C93.346619,57.691601 91.905083,58.189323 90.257210,58.758286 
	C92.625854,64.884018 94.877953,70.708351 96.227463,76.768562 
	C95.453171,77.612160 94.678879,78.455757 93.231819,79.057053 
	C91.937546,78.324493 90.690140,77.488525 89.340988,76.877037 
	C83.057045,74.028946 76.853416,70.948753 70.394043,68.567375 
	C67.468391,67.488777 63.752621,66.625839 60.878113,70.463478 
	C64.429390,71.754219 67.543114,72.885933 71.486008,74.319008 
	C68.987740,75.846809 67.445534,76.789932 65.044884,78.258041 
	C68.331543,79.719299 70.741913,80.790955 73.507515,82.020546 
	C71.963715,83.832466 70.744797,85.263084 68.514313,87.880959 
	C78.059006,90.908432 82.908943,98.893158 90.145233,104.777512 
	C90.268509,104.862442 90.391792,104.947372 90.515068,105.032303 
	C90.335739,104.798965 90.156403,104.565628 90.959694,103.922340 
z"/>
<path fill="#F9F9F9" opacity="1.000000" stroke="none" 
	d="
M94.001122,35.242073 
	C100.393280,41.616085 107.967461,47.201477 112.879105,54.563267 
	C119.051071,63.814087 123.055511,74.513260 127.959068,84.605034 
	C128.516174,85.751587 128.839859,87.011559 129.615479,89.179764 
	C138.042221,79.031425 147.045105,84.153488 155.674088,86.913727 
	C151.545181,89.302414 146.971741,91.259003 143.282028,94.291023 
	C140.066635,96.933296 137.218048,100.465797 135.317337,104.173897 
	C131.039566,112.519371 125.229988,117.564339 115.362495,118.291893 
	C111.282280,118.592728 106.828308,121.103676 103.594467,123.847260 
	C99.082245,127.675430 95.604103,132.709015 91.583817,137.136276 
	C89.662071,139.252563 87.510986,141.160599 84.547623,144.059036 
	C84.547623,141.016754 84.547623,139.493851 84.547623,137.656372 
	C83.063263,137.464035 81.645035,137.280273 79.939484,137.059265 
	C79.939484,135.875107 79.939484,134.645523 79.939484,133.211594 
	C78.411125,132.919327 76.856651,132.622070 74.834747,132.235428 
	C75.694099,130.415466 76.412888,128.893188 77.162392,127.305862 
	C75.330482,126.725708 73.703362,126.210403 71.370117,125.471474 
	C72.909805,123.801933 73.956215,122.667282 75.070580,121.458931 
	C73.971642,120.545662 72.877083,119.636040 70.752037,117.870033 
	C73.605293,116.705284 75.645393,115.348297 77.809952,115.106773 
	C81.419876,114.703987 85.117661,114.865685 88.763336,115.065437 
	C92.876541,115.290810 96.287582,114.166023 99.270782,110.343048 
	C100.680954,107.804932 102.407242,105.816521 102.535408,103.729950 
	C103.060722,95.178413 100.615288,87.059242 98.092636,78.717514 
	C97.792564,77.796257 97.460106,77.162331 97.119423,76.547104 
	C97.111198,76.565804 97.130058,76.532684 97.130058,76.532684 
	C94.877953,70.708351 92.625854,64.884018 90.257210,58.758286 
	C91.905083,58.189323 93.346619,57.691601 94.881180,57.161758 
	C89.466339,51.416706 89.466339,51.416706 93.535309,50.555801 
	C94.622688,50.831738 95.180984,50.876518 95.739288,50.921299 
	C95.946785,50.651672 96.154282,50.382046 96.361778,50.112419 
	C95.817566,49.881931 95.273346,49.651447 94.729141,49.420959 
	C93.891205,47.552330 93.053268,45.683704 92.009811,43.356754 
	C93.560310,43.356754 94.596039,43.356754 96.099030,43.794804 
	C97.249168,44.265240 97.932045,44.297630 98.614922,44.330021 
	C98.317238,43.910362 98.019547,43.490704 97.721863,43.071045 
	C96.054482,40.946785 94.387100,38.822521 92.966072,36.295738 
	C93.475327,35.676170 93.738220,35.459122 94.001122,35.242073 
z"/>
<path fill="#F7F7F7" opacity="1.000000" stroke="none" 
	d="
M97.722374,104.236481 
	C95.468147,104.131767 93.213921,104.027054 90.475220,104.162216 
	C89.990738,104.402100 89.945915,104.349098 89.945915,104.349098 
	C82.908943,98.893158 78.059006,90.908432 68.514313,87.880959 
	C70.744797,85.263084 71.963715,83.832466 73.507515,82.020546 
	C70.741913,80.790955 68.331543,79.719299 65.044884,78.258041 
	C67.445534,76.789932 68.987740,75.846809 71.486008,74.319008 
	C67.543114,72.885933 64.429390,71.754219 60.878113,70.463478 
	C63.752621,66.625839 67.468391,67.488777 70.394043,68.567375 
	C76.853416,70.948753 83.057045,74.028946 89.340988,76.877037 
	C90.690140,77.488525 91.937546,78.324493 93.748672,79.501511 
	C95.506439,83.825333 97.284042,87.629639 97.840034,91.604797 
	C98.416908,95.729187 97.811005,100.019012 97.722374,104.236481 
z"/>
<path fill="#0C0C0C" opacity="1.000000" stroke="none" 
	d="
M97.786057,104.669754 
	C97.811005,100.019012 98.416908,95.729187 97.840034,91.604797 
	C97.284042,87.629639 95.506439,83.825333 94.085052,79.622665 
	C94.678879,78.455757 95.453171,77.612160 96.678757,76.650620 
	C97.130058,76.532684 97.111198,76.565804 96.866249,76.825562 
	C97.100952,77.725159 97.580605,78.365013 98.060257,79.004860 
	C100.615288,87.059242 103.060722,95.178413 102.535408,103.729950 
	C102.407242,105.816521 100.680954,107.804932 99.376175,109.993393 
	C98.658501,108.466545 98.254112,106.784782 97.786057,104.669754 
z"/>
<path fill="#E6E6E6" opacity="1.000000" stroke="none" 
	d="
M97.407349,43.397602 
	C98.019547,43.490704 98.317238,43.910362 98.614922,44.330021 
	C97.932045,44.297630 97.249168,44.265240 96.385864,44.071724 
	C96.501236,43.848446 96.797043,43.786304 97.407349,43.397602 
z"/>
<path fill="#E6E6E6" opacity="1.000000" stroke="none" 
	d="
M93.674736,35.143555 
	C93.738220,35.459122 93.475327,35.676170 92.954880,35.925514 
	C92.914345,35.653545 93.131348,35.349289 93.674736,35.143555 
z"/>
<path fill="#0C0C0C" opacity="1.000000" stroke="none" 
	d="
M90.045578,104.563309 
	C89.945915,104.349098 89.990738,104.402100 89.983902,104.367195 
	C90.156403,104.565628 90.335739,104.798965 90.515068,105.032303 
	C90.391792,104.947372 90.268509,104.862442 90.045578,104.563309 
z"/>
<path fill="#000000" opacity="1.000000" stroke="none" 
	d="
M98.092636,78.717514 
	C97.580605,78.365013 97.100952,77.725159 96.874474,76.806862 
	C97.460106,77.162331 97.792564,77.796257 98.092636,78.717514 
z"/>
<path fill="#000000" opacity="1.000000" stroke="none" 
	d="
M94.467712,49.635399 
	C95.273346,49.651447 95.817566,49.881931 96.361778,50.112419 
	C96.154282,50.382046 95.946785,50.651672 95.739288,50.921299 
	C95.180984,50.876518 94.622688,50.831738 93.886078,50.546837 
	C93.873940,50.154427 94.040123,50.002129 94.467712,49.635399 
z"/>
</svg>